# xmcd CD database file
#
# Track frame offsets:
#	150
#	13937
#	34462
#	53357
#	74070
#	92627
#	109795
#	128755
#	147337
#	166327
#
# Disc length: 2455 seconds
#
# Revision: 3
# Processed by: cddbd v1.5.2PL0 Copyright (c) Steve Scherf et al.
# Submitted via: CDex 1.70beta3
#
DISCID=8b09950a
DTITLE=薬師丸ひろ子 - 夢十話
DYEAR=1985
DGENRE=JPop
TTITLE0=天に星、地に花。
TTITLE1=スマッシュ・ボーイの微笑み
TTITLE2=冷たくされたい
TTITLE3=過去からの手紙
TTITLE4=千年の孤独
TTITLE5=Welcome Back To My Heart
TTITLE6=ある日印象派
TTITLE7=クリスマス・アベニュー
TTITLE8=水の中のイエスタデイ～再会物語～
TTITLE9=バンブー・ボート
EXTD=YEAR: 1985
EXTT0=
EXTT1=
EXTT2=
EXTT3=
EXTT4=
EXTT5=
EXTT6=
EXTT7=
EXTT8=
EXTT9=
PLAYORDER=
